HIERARCHY
ROOT Hips
{
	OFFSET	0.00	0.00	0.00
	CHANNELS 6 Xposition Yposition Zposition Zrotation Xrotation Yrotation
	JOINT LeftHip
	{
		OFFSET	 3.430000	 0.000000	 0.000000
		CHANNELS 3 Zrotation Xrotation Yrotation
		JOINT LeftKnee
		{
			OFFSET	 0.000000	-18.469999	 0.000000
			CHANNELS 3 Zrotation Xrotation Yrotation
			JOINT LeftAnkle
			{
				OFFSET	 0.000000	-17.950001	 0.000000
				CHANNELS 3 Zrotation Xrotation Yrotation
				End Site 
				{
					OFFSET	 0.000000	-3.119996	 0.000000
				}
			}
		}
	}
	JOINT RightHip
	{
		OFFSET	-3.430000	 0.000000	 0.000000
		CHANNELS 3 Zrotation Xrotation Yrotation
		JOINT RightKnee
		{
			OFFSET	 0.000000	-18.809999	 0.000000
			CHANNELS 3 Zrotation Xrotation Yrotation
			JOINT RightAnkle
			{
				OFFSET	 0.000000	-17.570000	 0.000000
				CHANNELS 3 Zrotation Xrotation Yrotation
				End Site 
				{
					OFFSET	 0.000000	-3.250000	 0.000000
				}
			}
		}
	}
	JOINT Chest
	{
		OFFSET	 0.000000	 4.570000	 0.000000
		CHANNELS 3 Zrotation Xrotation Yrotation
		JOINT LeftCollar
		{
			OFFSET	 1.060000	 15.330000	 1.760000
			CHANNELS 3 Zrotation Xrotation Yrotation
			JOINT LeftShoulder
			{
				OFFSET	 5.810000	 0.000000	 0.000000
				CHANNELS 3 Zrotation Xrotation Yrotation
				JOINT LeftElbow
				{
					OFFSET	 0.000000	-12.080000	 0.000000
					CHANNELS 3 Zrotation Xrotation Yrotation
					JOINT LeftWrist
					{
						OFFSET	 0.000000	-9.820000	 0.000000
						CHANNELS 3 Zrotation Xrotation Yrotation
						End Site 
						{
							OFFSET	 0.000000	-7.369996	 0.000000
						}
					}
				}
			}
		}
		JOINT RightCollar
		{
			OFFSET	-1.060000	 15.330000	 1.760000
			CHANNELS 3 Zrotation Xrotation Yrotation
			JOINT RightShoulder
			{
				OFFSET	-6.060000	 0.000000	 0.000000
				CHANNELS 3 Zrotation Xrotation Yrotation
				JOINT RightElbow
				{
					OFFSET	 0.000000	-11.900000	 0.000000
					CHANNELS 3 Zrotation Xrotation Yrotation
					JOINT RightWrist
					{
						OFFSET	 0.000000	-9.520000	 0.000000
						CHANNELS 3 Zrotation Xrotation Yrotation
						End Site 
						{
							OFFSET	 0.000000	-7.140012	 0.000000
						}
					}
				}
			}
		}
		JOINT Neck
		{
			OFFSET	 0.000000	 17.620001	 0.000000
			CHANNELS 3 Zrotation Xrotation Yrotation
			JOINT Head
			{
				OFFSET	 0.000000	 5.190000	 0.000000
				CHANNELS 3 Zrotation Xrotation Yrotation
				End Site 
				{
					OFFSET	 0.000000	 4.140008	 0.000000
				}
			}
		}
	}
}

MOTION
Frames: 23
Frame Time: 0.033333
9.0179 -1.361 -52.7436 13.3591 20.3301 148.457 13.8184 4.37889 18.3839 14.5905 45.0749 -11.7385 -19.304 -5.35465 -13.2276 -24.2762 -7.59061 -21.7992 -5.19057 28.0012 1.39379 5.1459 -8.14377 10.1668 12.4646 21.7451 -14.0103 0 0 0 139.692 -20.4883 130.079 -20.0129 -28.6794 -7.09809 4.91648 -24.3769 -2.37427 0 0 0 -138.029 -7.25217 -98.9353 25.7115 -45.3707 15.5093 -17.9468 -23.0954 12.257 0 0 0 -8.6096 -21.7058 -10.9403 
10.8511 -2.26 -52.839 13.5099 22.3835 149.077 14.5819 6.63635 15.6339 15.9984 48.3687 -12.5958 -19.7698 -8.89626 -13.1982 -24.9878 -6.26618 -20.8182 -5.10385 30.4854 1.63404 5.24247 -7.34329 8.67862 10.9121 23.6384 -13.6255 0 0 0 137.687 -20.5701 130.75 -21.2557 -30.9101 -8.02024 4.36787 -24.0848 -0.606064 0 0 0 -136.781 -4.33737 -100.619 24.7524 -45.2835 14.7635 -16.6616 -22.8692 11.9794 0 0 0 -8.61658 -22.8023 -12.2178 
12.6567 -2.8677 -52.844 13.3308 24.0833 149.901 15.9206 8.46972 13.4399 17.0048 50.8122 -12.9681 -20.6625 -10.4939 -13.7773 -25.4809 -4.80241 -20.9208 -5.30244 33.3064 2.19975 5.58349 -5.93885 7.31246 9.12547 25.1241 -13.2828 0 0 0 137.058 -20.4254 130.767 -20.0423 -30.0414 -7.42034 3.92118 -23.9702 1.35946 0 0 0 -134.773 3.69705 -100.065 21.6214 -42.077 11.8833 -16.0575 -23.0472 10.9954 0 0 0 -8.57886 -23.593 -13.3742 
14.3317 -3.0109 -52.7938 12.9785 25.7811 151.175 17.135 9.41027 12.1471 17.7036 52.2231 -13.1972 -19.6971 -9.48136 -13.2203 -25.6192 -2.89598 -21.7118 -6.00257 36.0726 2.86467 6.50232 -1.85131 7.50714 7.5998 26.6287 -13.6199 0 0 0 135.687 -20.7558 129.672 -18.3448 -29.2302 -5.93173 2.72074 -24.5729 2.86837 0 0 0 -132.453 11.2548 -95.4478 18.5702 -38.1733 9.66457 -16.0634 -23.114 7.89351 0 0 0 -8.51886 -24.152 -14.271 
15.4818 -2.4383 -52.6983 12.8081 26.8847 152.489 17.5021 10.1597 11.7242 17.515 51.0195 -11.6115 -17.3581 -4.881 -11.4143 -25.5507 -0.734615 -22.5462 -6.54545 38.1382 3.85376 7.15238 0.0941788 9.17741 7.438 28.3534 -14.3716 0 0 0 135.69 -21.7225 129.834 -14.9085 -26.4598 -3.48896 1.05837 -24.2335 1.55934 0 0 0 -131.343 13.8415 -88.565 14.282 -33.2674 6.33313 -17.0347 -23.6134 3.28153 0 0 0 -8.53713 -24.5223 -14.9901 
16.6144 -1.5996 -52.6381 12.185 27.1047 153.872 17.7385 9.87511 12.1775 16.9365 48.7228 -9.80947 -15.4388 1.68946 -10.3888 -25.3259 0.6065 -23.1889 -6.95369 39.1367 4.42312 9.22212 -0.839436 12.0978 7.7001 29.2075 -15.103 0 0 0 135.078 -23.9787 128.316 -11.2388 -23.9202 -0.484078 -0.326522 -24.0203 2.26668 0 0 0 -129.341 11.3124 -80.3791 11.0214 -29.0437 4.05536 -17.9619 -24.2142 -0.938585 0 0 0 -8.59362 -24.5988 -15.6276 
17.7042 -0.683 -52.6205 11.2818 25.7251 155.624 18.0844 7.91346 13.2553 16.6217 46.6751 -8.73156 -13.412 8.42999 -8.82479 -23.9928 0.465255 -22.087 -7.40141 39.9692 5.43769 10.5087 1.93325 12.9164 8.92999 28.2037 -15.844 0 0 0 131.361 -29.6231 123.6 -8.5481 -21.2781 2.58353 -1.40839 -25.2682 5.04399 0 0 0 -123.005 4.65046 -75.2251 8.9768 -26.4272 2.77721 -18.8172 -25.1198 -4.85116 0 0 0 -8.96719 -24.0657 -16.35 
18.5731 0.103 -52.6356 10.617 23.7285 157.156 18.7741 5.29686 14.8384 16.2182 44.4599 -7.51092 -11.8208 14.144 -6.53896 -22.3149 -0.359613 -20.4499 -6.48416 39.6037 6.77827 11.4699 3.05375 12.3877 10.7956 26.6146 -16.9068 0 0 0 124.025 -35.3381 116.826 -8.43287 -20.4846 3.61091 -3.31716 -26.5168 4.84836 0 0 0 -114.318 -4.26125 -73.8762 8.61057 -26.0298 2.72342 -19.4636 -27.2134 -8.82227 0 0 0 -9.39094 -23.6486 -16.8455 
19.4395 0.7157 -52.633 9.97175 21.6 158.612 19.5693 2.66595 16.142 15.6307 42.6996 -6.04269 -11.004 17.782 -5.14281 -21.1841 -1.28991 -19.5747 -6.25178 38.4125 7.45828 12.8891 4.96024 14.4443 12.8075 25.097 -18.2412 0 0 0 113.28 -40.3335 108.15 -10.548 -21.5486 2.74768 -5.1324 -28.3451 4.97366 0 0 0 -104.25 -14.3248 -76.497 10.4098 -28.8189 4.10298 -20.3839 -28.5611 -12.1973 0 0 0 -9.89283 -23.5957 -17.031 
20.2054 1.0171 -52.6531 9.57158 19.9771 159.892 20.7387 0.428239 16.7872 15.4873 41.9504 -4.93211 -11.634 19.8587 -4.12063 -19.759 -1.75475 -18.4805 -5.84355 37.4174 8.30436 13.9886 4.50805 16.1945 14.7794 24.142 -19.737 0 0 0 98.0824 -45.0036 96.4549 -14.5099 -24.0481 0.576872 -8.74064 -29.3705 3.10513 0 0 0 -92.9294 -19.6248 -75.4057 12.6508 -32.5998 6.53386 -21.2682 -29.3105 -15.8945 0 0 0 -10.6206 -24.3362 -17.1728 
20.8885 1.0522 -52.628 9.55384 19.1042 160.368 21.8494 -0.894029 17.0856 15.5371 41.6071 -4.09159 -12.4134 21.0191 -4.26893 -18.4006 -1.77845 -17.0952 -5.45708 36.652 9.39466 15.3903 1.32177 17.7867 16.0275 23.4084 -20.8686 0 0 0 79.8088 -47.2424 81.1472 -17.9073 -25.4141 -1.92007 -11.7347 -27.7824 1.51701 0 0 0 -80.8782 -23.3283 -74.547 14.7229 -34.7847 8.25943 -22.3081 -29.6249 -17.9894 0 0 0 -11.0854 -24.8288 -17.0451 
21.4384 0.7911 -52.6607 9.29996 18.3102 160.523 22.8763 -2.31989 17.0025 15.3607 42.2915 -3.93405 -12.6522 20.845 -3.89725 -17.5267 -1.76357 -16.1201 -5.33551 36.3188 10.9323 16.3937 -2.89144 18.5501 16.3305 21.6757 -21.0658 0 0 0 58.8412 -44.2337 62.9064 -19.7215 -25.2943 -3.41295 -12.4609 -24.8825 1.6166 0 0 0 -67.5711 -25.6899 -70.968 16.1001 -34.9646 9.63214 -23.4945 -28.6972 -20.6626 0 0 0 -11.8585 -24.6719 -17.0291 
21.903 0.452 -52.6481 9.04367 18.3538 160.189 23.199 -3.08495 16.2464 15.1068 44.0935 -4.10972 -12.9484 18.3532 -1.63088 -17.3437 -1.50391 -14.8986 -5.44749 36.528 12.0273 15.8675 -6.88159 18.0081 16.2473 20.6727 -21.2728 0 0 0 41.5934 -36.9078 48.8454 -19.8274 -23.7659 -4.45921 -12.0973 -21.8494 1.37046 0 0 0 -54.6434 -25.5143 -64.4476 16.4194 -34.233 9.86742 -24.9069 -27.5068 -24.2694 0 0 0 -12.6144 -25.0099 -16.8255 
22.1441 0.0603 -52.6606 8.45103 19.3902 159.695 22.6468 -2.6163 15.2691 14.3791 45.3397 -3.67903 -12.9352 15.3912 0.650946 -18.2608 -0.60525 -14.8976 -5.64396 36.2149 12.1761 16.7291 -10.9854 20.528 15.2484 20.6212 -21.6387 0 0 0 30.0317 -29.415 41.2602 -18.2294 -21.0981 -4.32095 -11.2487 -17.7951 0.480489 0 0 0 -45.627 -23.2305 -59.219 15.9862 -32.8234 9.57617 -26.3193 -26.2581 -27.3349 0 0 0 -12.9586 -25.5502 -16.3752 
22.2621 -0.3164 -52.6782 7.87295 20.9137 159.054 22.1832 -1.28215 14.5978 13.6543 46.0606 -3.18432 -13.4044 13.2937 0.574289 -19.4029 0.863889 -15.2701 -5.98608 35.8986 12.1417 17.4664 -12.6549 23.5607 14.1237 21.2025 -21.9902 0 0 0 20.9266 -21.1859 36.3582 -15.799 -18.0957 -3.19056 -9.66672 -13.9391 -0.0183401 0 0 0 -39.0223 -19.6512 -55.8819 16.0704 -32.2882 9.62453 -26.7021 -25.2549 -29.4486 0 0 0 -13.1346 -25.9375 -16.1518 
22.2873 -0.4796 -52.7134 7.32583 22.2014 158.538 21.8549 0.104732 14.131 13.1799 45.7959 -3.27809 -14.2543 11.0395 -1.50536 -20.5724 2.21378 -16.1215 -6.14951 35.4265 12.2918 17.7993 -13.9494 25.8776 12.964 21.2131 -21.903 0 0 0 14.1702 -11.7303 34.1627 -13.2217 -14.9632 -2.09238 -8.19441 -10.9857 -1.13337 0 0 0 -35.0783 -13.6111 -54.3833 16.4174 -32.7542 9.9754 -27.0458 -24.3475 -31.1924 0 0 0 -13.3328 -25.4272 -17.2589 
22.2169 -0.3666 -52.7109 6.71813 23.1134 158.18 20.7723 1.34887 13.5203 12.4472 44.4404 -3.21619 -14.3912 9.77542 -3.45705 -21.9187 3.33203 -17.1871 -6.3922 34.3037 12.2854 18.3699 -13.0581 28.1279 11.304 20.7594 -20.6185 0 0 0 10.0239 -4.00598 33.6019 -10.5403 -12.4753 -0.847921 -5.28006 -8.73634 -1.60118 0 0 0 -33.9866 -6.73947 -55.4791 16.8148 -33.5359 10.29 -27.8033 -23.4653 -32.3794 0 0 0 -13.1702 -24.0756 -19.7352 
22.1039 -0.226 -52.7586 5.86323 23.0146 158.571 19.8755 1.77641 12.7518 11.7213 43.059 -3.23216 -14.4869 8.90503 -4.66111 -22.88 3.8383 -18.3514 -6.54881 32.8137 12.0282 18.6873 -11.6751 29.1353 9.96267 20.26 -18.6894 0 0 0 7.59468 1.35189 33.6406 -8.33167 -10.21 0.3031 -2.33738 -8.60302 -2.02196 0 0 0 -34.9533 -2.4416 -59.6314 16.5999 -33.9494 10.1574 -28.7273 -22.0616 -33.2602 0 0 0 -12.9739 -23.28 -23.5944 
21.9583 0.0377 -52.741 5.46374 22.7319 159.549 19.8715 2.09103 11.8728 11.0949 41.3071 -3.37367 -13.924 9.45653 -4.61231 -23.1199 4.14604 -18.8458 -6.31832 30.8367 11.1413 18.9771 -10.106 28.97 8.89396 20.8539 -16.86 0 0 0 7.9885 2.7604 33.9265 -6.60894 -8.35775 1.07562 -0.869427 -9.644 -2.96727 0 0 0 -36.7074 -4.26521 -65.2503 15.661 -33.3666 9.3308 -29.7301 -19.8605 -33.6983 0 0 0 -12.0947 -23.339 -28.5354 
21.7599 0.221 -52.7209 5.19969 21.8819 160.951 20.6016 1.95642 11.2044 10.8911 39.2379 -3.21089 -13.1573 11.2945 -6.41504 -22.8453 4.1947 -19.5602 -5.92284 28.7059 10.717 19.1979 -8.55155 27.8533 7.51787 20.7676 -14.6231 0 0 0 10.9871 1.68596 32.9854 -5.20695 -5.91009 1.83536 -0.445062 -10.789 -4.57443 0 0 0 -40.1524 -5.6577 -69.0354 13.9663 -31.9637 8.00585 -30.087 -17.8185 -33.365 0 0 0 -10.547 -22.4449 -34.0354 
21.3907 0.3064 -52.6356 5.32313 21.0144 162.318 21.8061 1.51834 10.4827 11.1287 37.5949 -3.43526 -13.1359 13.6463 -9.00668 -22.2757 3.95622 -19.7986 -5.46499 27.2227 10.4331 19.4307 -7.41522 26.157 6.13249 20.4585 -12.2003 0 0 0 15.6563 -0.934535 31.4392 -4.38793 -4.20302 1.93089 -0.475302 -11.3808 -6.23384 0 0 0 -44.8631 -7.61668 -69.7081 11.7471 -30.4031 6.61338 -30.7472 -16.7202 -32.8793 0 0 0 -8.46924 -20.7533 -39.5552 
20.9036 0.2687 -52.4849 5.53068 20.3558 163.555 22.5994 1.12288 9.13477 11.402 36.5578 -3.93322 -13.4088 14.7023 -10.3126 -21.8646 3.80554 -19.7251 -5.0136 25.9634 10.131 19.7214 -6.52487 24.2468 4.85234 20.232 -9.71488 0 0 0 21.2501 -5.49239 29.5672 -3.94782 -2.94576 1.37311 -1.35459 -11.2669 -8.7236 0 0 0 -51.5546 -11.471 -68.1838 9.6774 -29.2864 5.12131 -32.0938 -17.067 -31.3108 0 0 0 -6.16344 -18.85 -44.6682 
20.2808 0.0327 -52.294 5.83329 20.4316 164.593 22.9946 1.30696 7.84525 11.8376 36.4745 -4.75781 -14.2064 14.5973 -10.0508 -21.9743 3.82882 -19.2727 -4.57557 25.3777 9.96724 20.1352 -5.80927 22.4639 3.48043 20.7797 -7.52152 0 0 0 26.2328 -12.4064 26.4716 -4.1423 -2.58515 0.800214 -3.13292 -11.1278 -11.7659 0 0 0 -58.9072 -18.4684 -66.0121 8.8688 -28.9665 4.72132 -32.2365 -18.3969 -27.5673 0 0 0 -4.11468 -17.282 -48.7512 
